Sahara.2005.720p.BluRay.x264.AC3-SCG.mkv
  http://www.imdb.com/title/tt0318649/

General
Complete name                    : F:ccfbits.orgSahara.2005Sahara.???.2005.720p.BluRay.x264.AC3-SCG.mkv
Format                           : Matroska
File size                        : 2.40 GiB
Duration                         : 2h 4mn
Overall bit rate                 : 2 766 Kbps
Encoded date                     : UTC 2010-04-28 08:34:17
Writing application              : mkvmerge v3.0.0 ('Hang up your Hang-Ups') ??? Dec 12 2009 15:20:35
Writing library                  : libebml v0.7.9 + libmatroska v0.8.1

Video
ID                               : 1
Format                           : AVC
Format/Info                      : Advanced Video Codec
Format profile                   : High@L4.1
Format settings, CABAC           : Yes
Format settings, ReFrames        : 5 frames
Muxing mode                      : Container profile=Unknown@4.1
Codec ID                         : V_MPEG4/ISO/AVC
Duration                         : 2h 4mn
Bit rate                         : 2 381 Kbps
Width                            : 1 280 pixels
Height                           : 720 pixels
Display aspect ratio             : 16:9
Frame rate                       : 23.976 fps
Resolution                       : 8 bits
Colorimetry                      : 4:2:0
Scan type                        : Progressive
Bits/(Pixel*Frame)               : 0.108
Stream size                      : 2.02 GiB (84%)
Writing library                  : x264 core 80 r1376M 3feaec2
Encoding settings                : cabac=1 / ref=5 / deblock=1:-1:-1 / analyse=0x3:0x113 / me=umh / subme=9 / psy=1 / psy_rd=1.0:0.0 / mixed_ref=1 / me_range=32 / chroma_me=1 / trellis=1 / 8x8dct=1 / cqm=0 / deadzone=21,11 / fast_pskip=1 / chroma_qp_offset=-2 / threads=6 / sliced_threads=0 / nr=0 / decimate=1 / mbaff=0 / constrained_intra=0 / bframes=3 / b_pyramid=0 / b_adapt=2 / b_bias=0 / direct=1 / wpredb=1 / wpredp=2 / keyint=250 / keyint_min=25 / scenecut=40 / rc_lookahead=40 / rc=2pass / mbtree=1 / bitrate=2381 / ratetol=1.0 / qcomp=0.60 / qpmin=10 / qpmax=51 / qpstep=4 / cplxblur=20.0 / qblur=0.5 / ip_ratio=1.40 / aq=1:1.00
Language                         : English

Audio
ID                               : 2
Format                           : AC-3
Format/Info                      : Audio Coding 3
Mode extension                   : CM (complete main)
Codec ID                         : A_AC3
Duration                         : 2h 4mn
Bit rate mode                    : Constant
Bit rate                         : 384 Kbps
Channel(s)                       : 6 channels
Channel positions                : Front: L C R, Side: L R, LFE
Sampling rate                    : 48.0 KHz
Stream size                      : 341 MiB (14%)

Text #1
ID                               : 3
Format                           : SSA
Codec ID                         : S_TEXT/SSA
Codec ID/Info                    : Sub Station Alpha
Title                            : ????

Text #2
ID                               : 4
Format                           : SSA
Codec ID                         : S_TEXT/SSA
Codec ID/Info                    : Sub Station Alpha
Title                            : ????

Text #3
ID                               : 5
Format                           : UTF-8
Codec ID                         : S_TEXT/UTF8
Codec ID/Info                    : UTF-8 Plain Text
Title                            : ??

Text #4
ID                               : 6
Format                           : UTF-8
Codec ID                         : S_TEXT/UTF8
Codec ID/Info                    : UTF-8 Plain Text
Title                            : ??